<?xml version="1.0" standalone="no"?><!DOCTYPE svg PUBLIC "-//W3C//DTD SVG 1.1//EN" "http://www.w3.org/Graphics/SVG/1.1/DTD/svg11.dtd"><svg height="1024" node-id="1" sillyvg="true" template-height="1024" template-width="1024" version="1.1" viewBox="0 0 1024 1024" width="1024" xmlns="http://www.w3.org/2000/svg" xmlns:xlink="http://www.w3.org/1999/xlink"><defs node-id="86"></defs><path d="M 433.90 301.70 L 275.40 301.70 L 275.40 354.50 L 222.60 354.50 L 222.60 460.10 L 169.80 460.10 L 169.80 724.20 L 222.20 724.20 L 222.20 776.70 L 274.80 776.70 L 274.80 829.60 L 380.40 829.60 L 380.40 882.40 L 643.90 882.40 L 643.90 829.60 L 749.50 829.60 L 749.50 776.70 L 802.40 776.70 L 802.40 723.90 L 855.20 723.90 L 855.20 459.90 L 803.60 459.90 L 803.60 354.50 L 750.80 354.50 L 750.80 301.70 L 592.30 301.70 L 592.30 354.50 L 539.50 354.50 L 539.50 407.30 L 486.70 407.30 L 486.70 354.50 L 433.90 354.50 Z" fill="#ffffff" fill-rule="nonzero" node-id="88" stroke="none" target-height="580.7" target-width="685.4" target-x="169.8" target-y="301.7"></path><path d="M 433.90 143.20 L 381.10 143.20 L 381.10 248.90 L 433.90 248.90 L 433.90 301.70 L 486.70 301.70 L 486.70 354.50 L 539.50 354.50 L 539.50 301.70 L 592.30 301.70 L 592.30 248.90 L 645.10 248.90 L 645.10 143.20 L 592.30 143.20 L 592.30 196.00 L 539.50 196.00 L 539.50 143.20 L 486.70 143.20 L 486.70 196.00 L 433.90 196.00 Z" fill="#fd8383" fill-rule="nonzero" node-id="90" stroke="none" target-height="211.3" target-width="263.99997" target-x="381.1" target-y="143.2"></path><path d="M 381.10 90.40 L 433.90 90.40 L 433.90 143.20 L 381.10 143.20 Z" fill="#472712" fill-rule="nonzero" node-id="92" stroke="none" target-height="52.799995" target-width="52.799988" target-x="381.1" target-y="90.4"></path><path d="M 328.30 143.20 L 381.10 143.20 L 381.10 196.00 L 328.30 196.00 Z" fill="#472712" fill-rule="nonzero" node-id="94" stroke="none" target-height="52.800003" target-width="52.80002" target-x="328.3" target-y="143.2"></path><path d="M 433.90 143.20 L 486.70 143.20 L 486.70 196.00 L 433.90 196.00 Z" fill="#472712" fill-rule="nonzero" node-id="96" stroke="none" target-height="52.800003" target-width="52.80002" target-x="433.9" target-y="143.2"></path><path d="M 539.50 143.20 L 592.30 143.20 L 592.30 196.00 L 539.50 196.00 Z" fill="#472712" fill-rule="nonzero" node-id="98" stroke="none" target-height="52.800003" target-width="52.799988" target-x="539.5" target-y="143.2"></path><path d="M 328.30 196.00 L 381.10 196.00 L 381.10 248.80 L 328.30 248.80 Z" fill="#472712" fill-rule="nonzero" node-id="100" stroke="none" target-height="52.800003" target-width="52.80002" target-x="328.3" target-y="196"></path><path d="M 328.30 248.90 L 381.10 248.90 L 381.10 301.70 L 328.30 301.70 Z" fill="#472712" fill-rule="nonzero" node-id="102" stroke="none" target-height="52.80002" target-width="52.80002" target-x="328.3" target-y="248.9"></path><path d="M 275.40 248.90 L 328.20 248.90 L 328.20 301.70 L 275.40 301.70 Z" fill="#472712" fill-rule="nonzero" node-id="104" stroke="none" target-height="52.80002" target-width="52.80002" target-x="275.4" target-y="248.9"></path><path d="M 698.00 248.90 L 750.80 248.90 L 750.80 301.70 L 698.00 301.70 Z" fill="#472712" fill-rule="nonzero" node-id="106" stroke="none" target-height="52.80002" target-width="52.799988" target-x="698" target-y="248.9"></path><path d="M 222.60 301.70 L 275.40 301.70 L 275.40 354.50 L 222.60 354.50 Z" fill="#472712" fill-rule="nonzero" node-id="108" stroke="none" target-height="52.799988" target-width="52.799988" target-x="222.6" target-y="301.7"></path><path d="M 750.80 301.70 L 803.60 301.70 L 803.60 354.50 L 750.80 354.50 Z" fill="#472712" fill-rule="nonzero" node-id="110" stroke="none" target-height="52.799988" target-width="52.799988" target-x="750.8" target-y="301.7"></path><path d="M 169.80 354.50 L 222.60 354.50 L 222.60 407.30 L 169.80 407.30 Z" fill="#472712" fill-rule="nonzero" node-id="112" stroke="none" target-height="52.799988" target-width="52.800003" target-x="169.8" target-y="354.5"></path><path d="M 169.80 407.30 L 222.60 407.30 L 222.60 460.10 L 169.80 460.10 Z" fill="#472712" fill-rule="nonzero" node-id="114" stroke="none" target-height="52.80002" target-width="52.800003" target-x="169.8" target-y="407.3"></path><path d="M 803.60 354.50 L 856.40 354.50 L 856.40 407.30 L 803.60 407.30 Z" fill="#472712" fill-rule="nonzero" node-id="116" stroke="none" target-height="52.799988" target-width="52.80005" target-x="803.6" target-y="354.5"></path><path d="M 803.60 407.30 L 856.40 407.30 L 856.40 460.10 L 803.60 460.10 Z" fill="#472712" fill-rule="nonzero" node-id="118" stroke="none" target-height="52.80002" target-width="52.80005" target-x="803.6" target-y="407.3"></path><path d="M 117.00 407.30 L 169.80 407.30 L 169.80 460.10 L 117.00 460.10 Z" fill="#472712" fill-rule="nonzero" node-id="120" stroke="none" target-height="52.80002" target-width="52.800003" target-x="117" target-y="407.3"></path><path d="M 117.00 460.10 L 169.80 460.10 L 169.80 512.90 L 117.00 512.90 Z" fill="#472712" fill-rule="nonzero" node-id="122" stroke="none" target-height="52.80002" target-width="52.800003" target-x="117" target-y="460.1"></path><path d="M 117.00 512.90 L 169.80 512.90 L 169.80 565.70 L 117.00 565.70 Z" fill="#472712" fill-rule="nonzero" node-id="124" stroke="none" target-height="52.799988" target-width="52.800003" target-x="117" target-y="512.9"></path><path d="M 117.00 565.70 L 169.80 565.70 L 169.80 618.50 L 117.00 618.50 Z" fill="#472712" fill-rule="nonzero" node-id="126" stroke="none" target-height="52.799988" target-width="52.800003" target-x="117" target-y="565.7"></path><path d="M 117.00 618.50 L 169.80 618.50 L 169.80 671.30 L 117.00 671.30 Z" fill="#472712" fill-rule="nonzero" node-id="128" stroke="none" target-height="52.799988" target-width="52.800003" target-x="117" target-y="618.5"></path><path d="M 117.00 671.30 L 169.80 671.30 L 169.80 724.10 L 117.00 724.10 Z" fill="#472712" fill-rule="nonzero" node-id="130" stroke="none" target-height="52.799988" target-width="52.800003" target-x="117" target-y="671.3"></path><path d="M 855.20 407.10 L 908.00 407.10 L 908.00 459.90 L 855.20 459.90 Z" fill="#472712" fill-rule="nonzero" node-id="132" stroke="none" target-height="52.799988" target-width="52.799988" target-x="855.2" target-y="407.1"></path><path d="M 855.20 459.90 L 908.00 459.90 L 908.00 512.70 L 855.20 512.70 Z" fill="#472712" fill-rule="nonzero" node-id="134" stroke="none" target-height="52.80002" target-width="52.799988" target-x="855.2" target-y="459.9"></path><path d="M 855.20 512.70 L 908.00 512.70 L 908.00 565.50 L 855.20 565.50 Z" fill="#472712" fill-rule="nonzero" node-id="136" stroke="none" target-height="52.799988" target-width="52.799988" target-x="855.2" target-y="512.7"></path><path d="M 855.20 565.50 L 908.00 565.50 L 908.00 618.30 L 855.20 618.30 Z" fill="#472712" fill-rule="nonzero" node-id="138" stroke="none" target-height="52.799988" target-width="52.799988" target-x="855.2" target-y="565.5"></path><path d="M 855.20 618.30 L 908.00 618.30 L 908.00 671.10 L 855.20 671.10 Z" fill="#472712" fill-rule="nonzero" node-id="140" stroke="none" target-height="52.799988" target-width="52.799988" target-x="855.2" target-y="618.3"></path><path d="M 855.20 671.10 L 908.00 671.10 L 908.00 723.90 L 855.20 723.90 Z" fill="#472712" fill-rule="nonzero" node-id="142" stroke="none" target-height="52.80005" target-width="52.799988" target-x="855.2" target-y="671.1"></path><path d="M 169.40 724.20 L 222.20 724.20 L 222.20 777.00 L 169.40 777.00 Z" fill="#472712" fill-rule="nonzero" node-id="144" stroke="none" target-height="52.799988" target-width="52.800003" target-x="169.4" target-y="724.2"></path><path d="M 222.00 776.70 L 274.80 776.70 L 274.80 829.50 L 222.00 829.50 Z" fill="#472712" fill-rule="nonzero" node-id="146" stroke="none" target-height="52.799988" target-width="52.799988" target-x="222" target-y="776.7"></path><path d="M 274.80 829.60 L 327.60 829.60 L 327.60 882.40 L 274.80 882.40 Z" fill="#472712" fill-rule="nonzero" node-id="148" stroke="none" target-height="52.80005" target-width="52.80002" target-x="274.8" target-y="829.6"></path><path d="M 327.60 829.60 L 380.40 829.60 L 380.40 882.40 L 327.60 882.40 Z" fill="#472712" fill-rule="nonzero" node-id="150" stroke="none" target-height="52.80005" target-width="52.799988" target-x="327.6" target-y="829.6"></path><path d="M 380.40 882.40 L 433.20 882.40 L 433.20 935.20 L 380.40 935.20 Z" fill="#472712" fill-rule="nonzero" node-id="152" stroke="none" target-height="52.799988" target-width="52.80002" target-x="380.4" target-y="882.4"></path><path d="M 432.70 882.40 L 485.50 882.40 L 485.50 935.20 L 432.70 935.20 Z" fill="#472712" fill-rule="nonzero" node-id="154" stroke="none" target-height="52.799988" target-width="52.799988" target-x="432.7" target-y="882.4"></path><path d="M 485.50 882.40 L 538.30 882.40 L 538.30 935.20 L 485.50 935.20 Z" fill="#472712" fill-rule="nonzero" node-id="156" stroke="none" target-height="52.799988" target-width="52.799988" target-x="485.5" target-y="882.4"></path><path d="M 538.30 882.40 L 591.10 882.40 L 591.10 935.20 L 538.30 935.20 Z" fill="#472712" fill-rule="nonzero" node-id="158" stroke="none" target-height="52.799988" target-width="52.799988" target-x="538.3" target-y="882.4"></path><path d="M 591.10 882.40 L 643.90 882.40 L 643.90 935.20 L 591.10 935.20 Z" fill="#472712" fill-rule="nonzero" node-id="160" stroke="none" target-height="52.799988" target-width="52.80005" target-x="591.1" target-y="882.4"></path><path d="M 643.90 829.60 L 696.70 829.60 L 696.70 882.40 L 643.90 882.40 Z" fill="#472712" fill-rule="nonzero" node-id="162" stroke="none" target-height="52.80005" target-width="52.799988" target-x="643.9" target-y="829.6"></path><path d="M 696.70 829.60 L 749.50 829.60 L 749.50 882.40 L 696.70 882.40 Z" fill="#472712" fill-rule="nonzero" node-id="164" stroke="none" target-height="52.80005" target-width="52.799988" target-x="696.7" target-y="829.6"></path><path d="M 749.50 776.70 L 802.30 776.70 L 802.30 829.50 L 749.50 829.50 Z" fill="#472712" fill-rule="nonzero" node-id="166" stroke="none" target-height="52.799988" target-width="52.799988" target-x="749.5" target-y="776.7"></path><path d="M 802.40 723.90 L 855.20 723.90 L 855.20 776.70 L 802.40 776.70 Z" fill="#472712" fill-rule="nonzero" node-id="168" stroke="none" target-height="52.799988" target-width="52.799988" target-x="802.4" target-y="723.9"></path><path d="M 645.10 143.20 L 698.00 143.20 L 698.00 196.00 L 645.10 196.00 Z" fill="#472712" fill-rule="nonzero" node-id="170" stroke="none" target-height="52.800003" target-width="52.900024" target-x="645.1" target-y="143.2"></path><path d="M 645.10 196.00 L 698.00 196.00 L 698.00 248.80 L 645.10 248.80 Z" fill="#472712" fill-rule="nonzero" node-id="172" stroke="none" target-height="52.800003" target-width="52.900024" target-x="645.1" target-y="196"></path><path d="M 645.10 248.90 L 698.00 248.90 L 698.00 301.70 L 645.10 301.70 Z" fill="#472712" fill-rule="nonzero" node-id="174" stroke="none" target-height="52.80002" target-width="52.900024" target-x="645.1" target-y="248.9"></path><path d="M 381.10 248.90 L 433.90 248.90 L 433.90 301.70 L 381.10 301.70 Z" fill="#472712" fill-rule="nonzero" node-id="176" stroke="none" target-height="52.80002" target-width="52.799988" target-x="381.1" target-y="248.9"></path><path d="M 275.40 451.60 L 328.20 451.60 L 328.20 504.40 L 275.40 504.40 Z" fill="#472712" fill-rule="nonzero" node-id="178" stroke="none" target-height="52.799988" target-width="52.80002" target-x="275.4" target-y="451.6"></path><path d="M 328.30 451.60 L 381.10 451.60 L 381.10 504.40 L 328.30 504.40 Z" fill="#ede9e6" fill-rule="nonzero" node-id="180" stroke="none" target-height="52.799988" target-width="52.80002" target-x="328.3" target-y="451.6"></path><path d="M 275.40 504.40 L 328.20 504.40 L 328.20 557.20 L 275.40 557.20 Z" fill="#472712" fill-rule="nonzero" node-id="182" stroke="none" target-height="52.80002" target-width="52.80002" target-x="275.4" target-y="504.4"></path><path d="M 328.30 504.40 L 381.10 504.40 L 381.10 557.20 L 328.30 557.20 Z" fill="#472712" fill-rule="nonzero" node-id="184" stroke="none" target-height="52.80002" target-width="52.80002" target-x="328.3" target-y="504.4"></path><path d="M 643.10 451.60 L 696.00 451.60 L 696.00 504.40 L 643.10 504.40 Z" fill="#472712" fill-rule="nonzero" node-id="186" stroke="none" target-height="52.799988" target-width="52.900024" target-x="643.1" target-y="451.6"></path><path d="M 696.00 451.60 L 748.80 451.60 L 748.80 504.40 L 696.00 504.40 Z" fill="#ede9e6" fill-rule="nonzero" node-id="188" stroke="none" target-height="52.799988" target-width="52.799988" target-x="696" target-y="451.6"></path><path d="M 643.10 504.40 L 696.00 504.40 L 696.00 557.20 L 643.10 557.20 Z" fill="#472712" fill-rule="nonzero" node-id="190" stroke="none" target-height="52.80002" target-width="52.900024" target-x="643.1" target-y="504.4"></path><path d="M 696.00 504.40 L 748.80 504.40 L 748.80 557.20 L 696.00 557.20 Z" fill="#472712" fill-rule="nonzero" node-id="192" stroke="none" target-height="52.80002" target-width="52.799988" target-x="696" target-y="504.4"></path><path d="M 592.30 248.90 L 645.10 248.90 L 645.10 301.70 L 592.30 301.70 Z" fill="#472712" fill-rule="nonzero" node-id="194" stroke="none" target-height="52.80002" target-width="52.799988" target-x="592.3" target-y="248.9"></path><path d="M 539.50 301.70 L 592.30 301.70 L 592.30 354.50 L 539.50 354.50 Z" fill="#472712" fill-rule="nonzero" node-id="196" stroke="none" target-height="52.799988" target-width="52.799988" target-x="539.5" target-y="301.7"></path><path d="M 433.90 301.70 L 486.70 301.70 L 486.70 354.50 L 433.90 354.50 Z" fill="#472712" fill-rule="nonzero" node-id="198" stroke="none" target-height="52.799988" target-width="52.80002" target-x="433.9" target-y="301.7"></path><path d="M 486.70 354.50 L 539.50 354.50 L 539.50 407.30 L 486.70 407.30 Z" fill="#472712" fill-rule="nonzero" node-id="200" stroke="none" target-height="52.799988" target-width="52.799988" target-x="486.7" target-y="354.5"></path><path d="M 459.50 502.60 L 512.30 502.60 L 512.30 555.40 L 459.50 555.40 Z" fill="#472712" fill-rule="nonzero" node-id="202" stroke="none" target-height="52.80002" target-width="52.799988" target-x="459.5" target-y="502.6"></path><path d="M 512.40 502.60 L 565.20 502.60 L 565.20 555.40 L 512.40 555.40 Z" fill="#472712" fill-rule="nonzero" node-id="204" stroke="none" target-height="52.80002" target-width="52.799988" target-x="512.4" target-y="502.6"></path><path d="M 459.50 555.40 L 512.30 555.40 L 512.30 608.20 L 459.50 608.20 Z" fill="#e09027" fill-rule="nonzero" node-id="206" stroke="none" target-height="52.799988" target-width="52.799988" target-x="459.5" target-y="555.4"></path><path d="M 406.70 555.40 L 459.50 555.40 L 459.50 608.20 L 406.70 608.20 Z" fill="#472712" fill-rule="nonzero" node-id="208" stroke="none" target-height="52.799988" target-width="52.799988" target-x="406.7" target-y="555.4"></path><path d="M 512.40 555.40 L 565.20 555.40 L 565.20 608.20 L 512.40 608.20 Z" fill="#e09027" fill-rule="nonzero" node-id="210" stroke="none" target-height="52.799988" target-width="52.799988" target-x="512.4" target-y="555.4"></path><path d="M 565.20 555.40 L 618.00 555.40 L 618.00 608.20 L 565.20 608.20 Z" fill="#472712" fill-rule="nonzero" node-id="212" stroke="none" target-height="52.799988" target-width="52.799988" target-x="565.2" target-y="555.4"></path><path d="M 459.50 608.20 L 512.30 608.20 L 512.30 661.00 L 459.50 661.00 Z" fill="#472712" fill-rule="nonzero" node-id="214" stroke="none" target-height="52.799988" target-width="52.799988" target-x="459.5" target-y="608.2"></path><path d="M 485.90 661.10 L 538.80 661.10 L 538.80 713.90 L 485.90 713.90 Z" fill="#ed7f7c" fill-rule="nonzero" node-id="216" stroke="none" target-height="52.80005" target-width="52.899994" target-x="485.9" target-y="661.1"></path><path d="M 485.90 713.80 L 538.80 713.80 L 538.80 766.60 L 485.90 766.60 Z" fill="#ed7f7c" fill-rule="nonzero" node-id="218" stroke="none" target-height="52.799988" target-width="52.899994" target-x="485.9" target-y="713.8"></path><path d="M 485.90 766.60 L 538.80 766.60 L 538.80 819.40 L 485.90 819.40 Z" fill="#ed7f7c" fill-rule="nonzero" node-id="220" stroke="none" target-height="52.80005" target-width="52.899994" target-x="485.9" target-y="766.6"></path><path d="M 485.90 819.40 L 538.80 819.40 L 538.80 872.20 L 485.90 872.20 Z" fill="#472712" fill-rule="nonzero" node-id="222" stroke="none" target-height="52.799988" target-width="52.899994" target-x="485.9" target-y="819.4"></path><path d="M 433.10 661.10 L 485.90 661.10 L 485.90 713.90 L 433.10 713.90 Z" fill="#472712" fill-rule="nonzero" node-id="224" stroke="none" target-height="52.80005" target-width="52.799988" target-x="433.1" target-y="661.1"></path><path d="M 433.10 713.80 L 485.90 713.80 L 485.90 766.60 L 433.10 766.60 Z" fill="#472712" fill-rule="nonzero" node-id="226" stroke="none" target-height="52.799988" target-width="52.799988" target-x="433.1" target-y="713.8"></path><path d="M 433.10 766.60 L 485.90 766.60 L 485.90 819.40 L 433.10 819.40 Z" fill="#472712" fill-rule="nonzero" node-id="228" stroke="none" target-height="52.80005" target-width="52.799988" target-x="433.1" target-y="766.6"></path><path d="M 433.10 819.40 L 485.90 819.40 L 485.90 872.20 L 433.10 872.20 Z" fill="#472712" fill-rule="nonzero" node-id="230" stroke="none" target-height="52.799988" target-width="52.799988" target-x="433.1" target-y="819.4"></path><path d="M 538.80 661.10 L 591.60 661.10 L 591.60 713.90 L 538.80 713.90 Z" fill="#472712" fill-rule="nonzero" node-id="232" stroke="none" target-height="52.80005" target-width="52.799988" target-x="538.8" target-y="661.1"></path><path d="M 538.80 713.80 L 591.60 713.80 L 591.60 766.60 L 538.80 766.60 Z" fill="#472712" fill-rule="nonzero" node-id="234" stroke="none" target-height="52.799988" target-width="52.799988" target-x="538.8" target-y="713.8"></path><path d="M 538.80 766.60 L 591.60 766.60 L 591.60 819.40 L 538.80 819.40 Z" fill="#472712" fill-rule="nonzero" node-id="236" stroke="none" target-height="52.80005" target-width="52.799988" target-x="538.8" target-y="766.6"></path><path d="M 538.80 819.40 L 591.60 819.40 L 591.60 872.20 L 538.80 872.20 Z" fill="#472712" fill-rule="nonzero" node-id="238" stroke="none" target-height="52.799988" target-width="52.799988" target-x="538.8" target-y="819.4"></path><path d="M 406.70 608.20 L 459.50 608.20 L 459.50 661.00 L 406.70 661.00 Z" fill="#472712" fill-rule="nonzero" node-id="240" stroke="none" target-height="52.799988" target-width="52.799988" target-x="406.7" target-y="608.2"></path><path d="M 512.40 608.20 L 565.20 608.20 L 565.20 661.00 L 512.40 661.00 Z" fill="#472712" fill-rule="nonzero" node-id="242" stroke="none" target-height="52.799988" target-width="52.799988" target-x="512.4" target-y="608.2"></path><path d="M 565.20 608.20 L 618.00 608.20 L 618.00 661.00 L 565.20 661.00 Z" fill="#472712" fill-rule="nonzero" node-id="244" stroke="none" target-height="52.799988" target-width="52.799988" target-x="565.2" target-y="608.2"></path><path d="M 486.70 90.40 L 539.50 90.40 L 539.50 143.20 L 486.70 143.20 Z" fill="#472712" fill-rule="nonzero" node-id="246" stroke="none" target-height="52.799995" target-width="52.799988" target-x="486.7" target-y="90.4"></path><path d="M 592.30 90.40 L 645.10 90.40 L 645.10 143.20 L 592.30 143.20 Z" fill="#472712" fill-rule="nonzero" node-id="248" stroke="none" target-height="52.799995" target-width="52.799988" target-x="592.3" target-y="90.4"></path></svg>